HIERARCHY
ROOT Hips
{
	OFFSET 0.000000 8.830580 0.000000
	CHANNELS 6 Xposition Yposition Zposition Zrotation Yrotation Xrotation 
	JOINT Spine
	{
		OFFSET 0.000000 0.010000 0.000000
		CHANNELS 3 Zrotation Yrotation Xrotation
		JOINT Spine1
		{
			OFFSET 0.000000 2.459130 0.000000
			CHANNELS 3 Zrotation Yrotation Xrotation
			JOINT Neck
			{
				OFFSET 0.000000 2.484630 0.000000
				CHANNELS 3 Zrotation Yrotation Xrotation
				JOINT Head_virtual
				{
					OFFSET 0.000000 0.000000 0.000000
					CHANNELS 3 Zrotation Yrotation Xrotation
					JOINT Head
					{
						OFFSET 0.000000 0.927525 0.000000
						CHANNELS 3 Zrotation Yrotation Xrotation
						End Site
						{
							OFFSET 0.000000 0.000000 0.000000
						}
					}
				}
				JOINT LeftUpArm_virtual
				{
					OFFSET 0.000000 0.000000 0.000000
					CHANNELS 3 Zrotation Yrotation Xrotation
					JOINT LeftUpArm
					{
						OFFSET 1.248820 0.000000 0.000000
						CHANNELS 3 Zrotation Yrotation Xrotation
						JOINT LeftForeArm
						{
							OFFSET 2.597580 0.000000 0.000000
							CHANNELS 3 Zrotation Yrotation Xrotation
							JOINT LeftHand
							{
								OFFSET 2.455420 0.000000 0.000000
								CHANNELS 3 Zrotation Yrotation Xrotation
								End Site
								{
									OFFSET 0.000000 0.000000 0.000000
								}
							}
						}
					}
				}
				JOINT RightUpArm_virtual
				{
					OFFSET -0.000000 -0.000000 -0.000000
					CHANNELS 3 Zrotation Yrotation Xrotation
					JOINT RightUpArm
					{
						OFFSET -1.248820 -0.000000 -0.000000
						CHANNELS 3 Zrotation Yrotation Xrotation
						JOINT RightForeArm
						{
							OFFSET -2.597580 -0.000000 -0.000000
							CHANNELS 3 Zrotation Yrotation Xrotation
							JOINT RightHand
							{
								OFFSET -2.455420 -0.000000 -0.000000
								CHANNELS 3 Zrotation Yrotation Xrotation
								End Site
								{
									OFFSET 0.000000 0.000000 0.000000
								}
							}
						}
					}
				}
			}
		}
	}
	JOINT LeftUpLeg
	{
		OFFSET 1.271939 0.000000 0.000000
		CHANNELS 3 Zrotation Yrotation Xrotation
		JOINT LeftLowLeg
		{
			OFFSET 0.000000 -4.342910 0.000000
			CHANNELS 3 Zrotation Yrotation Xrotation
			JOINT LeftFoot
			{
				OFFSET 0.000000 -4.487670 0.000000
				CHANNELS 3 Zrotation Yrotation Xrotation
				JOINT LeftToeBase
				{
					OFFSET 0.000000 0.000000 1.515070
					CHANNELS 3 Zrotation Yrotation Xrotation
					End Site
					{
						OFFSET 0.000000 0.000000 0.000000
					}
				}
			}
		}
	}
	JOINT RightUpLeg
	{
		OFFSET -1.271939 0.000000 0.000000
		CHANNELS 3 Zrotation Yrotation Xrotation
		JOINT RightLowLeg
		{
			OFFSET 0.000000 -4.342910 0.000000
			CHANNELS 3 Zrotation Yrotation Xrotation
			JOINT RightFoot
			{
				OFFSET 0.000000 -4.487670 0.000000
				CHANNELS 3 Zrotation Yrotation Xrotation
				JOINT RightToeBase
				{
					OFFSET 0.000000 0.000000 1.515070
					CHANNELS 3 Zrotation Yrotation Xrotation
					End Site
					{
						OFFSET 0.000000 0.000000 0.000000
					}
				}
			}
		}
	}
}
MOTION
Frames: 14
Frame Time: 0.041667
-19.586676 9.168228 43.633531 -174.851963 -2.719576 -171.665932 2.942753 -2.273073 -11.275188 0.753186 -2.786205 4.087910 0.000000 0.000000 0.000000 -3.397335 5.488005 1.038478 3.759624 8.457200 -46.100190 0.413975 16.254700 -3.763400 -13.990000 -1.711770 -31.742100 0.000000 -20.432699 0.000000 28.706499 12.222100 28.152100 7.729600 -12.857200 -0.961657 10.608400 1.939600 -34.022999 0.000000 20.318899 0.000000 -17.039600 -6.264180 25.779200 5.223420 -2.572421 -7.217762 0.000000 0.000000 6.484550 -3.681518 2.146465 4.699805 0.000000 0.000000 -23.002290 4.036546 4.035782 -4.842246 0.000000 0.000000 6.042180 19.762406 -10.609238 4.850510 0.000000 0.000000 -23.769600 
-19.586676 9.168228 43.633531 -174.851963 -2.719576 -171.665932 2.942753 -2.273073 -11.275188 0.753186 -2.786205 4.087910 0.000000 0.000000 0.000000 -3.397335 5.488005 1.038478 3.759624 8.457200 -46.100190 0.413975 16.254700 -3.763400 -13.990000 -1.711770 -31.742100 0.000000 -20.432699 0.000000 28.706499 12.222100 28.152100 7.729600 -12.857200 -0.961657 10.608400 1.939600 -34.022999 0.000000 20.318899 0.000000 -17.039600 -6.264180 25.779200 5.223420 -2.572421 -7.217762 0.000000 0.000000 6.484550 -3.681518 2.146465 4.699805 0.000000 0.000000 -23.002290 4.036546 4.035782 -4.842246 0.000000 0.000000 6.042180 19.762406 -10.609238 4.850510 0.000000 0.000000 -23.769600 
-19.586691 9.167864 43.632305 -174.849620 -2.742583 -171.669788 2.940724 -2.281436 -11.275555 0.766869 -2.793567 4.073219 0.000000 0.000000 0.000000 -3.393154 5.502178 1.043453 3.780807 8.468954 -46.051072 0.409920 16.250099 -3.788130 -13.995100 -1.714630 -31.750401 0.000000 -20.423100 0.000000 28.655500 12.253900 28.201200 7.736800 -12.856200 -0.953968 10.609600 1.921840 -34.052601 0.000000 20.319300 0.000000 -17.012899 -6.195790 25.814100 5.231252 -2.610589 -7.224318 0.000000 0.000000 6.512370 -3.686257 2.155894 4.673815 0.000000 0.000000 -22.997110 4.043544 4.003249 -4.833592 0.000000 0.000000 6.059110 19.767400 -10.588955 4.827804 0.000000 0.000000 -23.736410 
-19.586691 9.167864 43.632305 -174.849620 -2.742583 -171.669788 2.940724 -2.281436 -11.275555 0.766869 -2.793567 4.073219 0.000000 0.000000 0.000000 -3.393154 5.502178 1.043453 3.780807 8.468954 -46.051072 0.409920 16.250099 -3.788130 -13.995100 -1.714630 -31.750401 0.000000 -20.423100 0.000000 28.655500 12.253900 28.201200 7.736800 -12.856200 -0.953968 10.609600 1.921840 -34.052601 0.000000 20.319300 0.000000 -17.012899 -6.195790 25.814100 5.231252 -2.610589 -7.224318 0.000000 0.000000 6.512370 -3.686257 2.155894 4.673815 0.000000 0.000000 -22.997110 4.043544 4.003249 -4.833592 0.000000 0.000000 6.059110 19.767400 -10.588955 4.827804 0.000000 0.000000 -23.736410 
-19.586606 9.167751 43.631214 -174.851680 -2.754215 -171.676032 2.923550 -2.295744 -11.295385 0.799907 -2.802370 4.120296 0.000000 0.000000 0.000000 -3.415801 5.536428 1.009852 3.823594 8.465609 -46.043599 0.392524 16.244600 -3.794480 -13.993200 -1.698090 -31.726801 0.000000 -20.393200 0.000000 28.696501 12.211900 28.239000 7.724040 -12.855700 -0.970231 10.622900 1.929230 -34.059700 0.000000 20.321600 0.000000 -16.989100 -6.272270 25.836500 5.228899 -2.593197 -7.217561 0.000000 0.000000 6.517470 -3.683919 2.129528 4.668532 0.000000 0.000000 -22.989400 4.045103 3.964309 -4.831508 0.000000 0.000000 6.082660 19.767220 -10.556640 4.822716 0.000000 0.000000 -23.747530 
-19.586527 9.167636 43.630295 -174.851981 -2.762268 -171.673453 2.924120 -2.295683 -11.295685 0.800053 -2.802436 4.115611 0.000000 0.000000 0.000000 -3.382843 5.516211 0.992801 3.818770 8.488291 -46.036879 0.395360 16.245600 -3.761970 -13.993700 -1.703360 -31.796200 0.000000 -20.405399 0.000000 28.723801 12.241500 28.240299 7.730300 -12.855600 -0.949732 10.606300 1.903280 -34.027401 0.000000 20.303801 0.000000 -16.987200 -6.255940 25.884899 5.230124 -2.589680 -7.211464 0.000000 0.000000 6.508470 -3.686889 2.114085 4.666384 0.000000 0.000000 -23.009310 4.042700 3.998244 -4.832389 0.000000 0.000000 6.090860 19.791290 -10.577568 4.803207 0.000000 0.000000 -23.764710 
-19.586388 9.167580 43.629570 -174.848014 -2.761892 -171.662910 2.924078 -2.299665 -11.293115 0.817362 -2.806035 4.099194 0.000000 0.000000 0.000000 -3.379563 5.522649 0.972730 3.818974 8.500039 -46.030617 0.387469 16.273199 -3.807010 -14.006400 -1.707900 -31.770700 0.000000 -20.424500 0.000000 28.716499 12.231300 28.167601 7.739370 -12.859000 -0.969708 10.584600 1.900400 -34.051800 0.000000 20.296400 0.000000 -17.058399 -6.290060 25.918400 5.236543 -2.583768 -7.214654 0.000000 0.000000 6.503530 -3.692391 2.104496 4.660150 0.000000 0.000000 -23.007720 4.045951 3.994268 -4.827313 0.000000 0.000000 6.070690 19.791166 -10.568702 4.809477 0.000000 0.000000 -23.748270 
-19.586410 9.167502 43.629417 -174.853427 -2.755976 -171.650137 2.925220 -2.297649 -11.284091 0.815918 -2.804257 4.074197 0.000000 0.000000 0.000000 -3.374897 5.527067 0.959254 3.814067 8.513143 -46.028555 0.376846 16.291901 -3.808700 -13.998500 -1.723170 -31.763800 0.000000 -20.425100 0.000000 28.704399 12.194500 28.208599 7.748120 -12.865800 -0.963451 10.583100 1.897670 -34.138302 0.000000 20.297899 0.000000 -17.076000 -6.257830 25.923201 5.231228 -2.586134 -7.229412 0.000000 0.000000 6.512710 -3.688532 2.113126 4.657374 0.000000 0.000000 -23.006590 4.038487 4.028665 -4.842664 0.000000 0.000000 6.078910 19.792296 -10.593740 4.788402 0.000000 0.000000 -23.738970 
-19.586410 9.167502 43.629417 -174.853427 -2.755976 -171.650137 2.925220 -2.297649 -11.284091 0.815918 -2.804257 4.074197 0.000000 0.000000 0.000000 -3.374897 5.527067 0.959254 3.814067 8.513143 -46.028555 0.376846 16.291901 -3.808700 -13.998500 -1.723170 -31.763800 0.000000 -20.425100 0.000000 28.704399 12.194500 28.208599 7.748120 -12.865800 -0.963451 10.583100 1.897670 -34.138302 0.000000 20.297899 0.000000 -17.076000 -6.257830 25.923201 5.231228 -2.586134 -7.229412 0.000000 0.000000 6.512710 -3.688532 2.113126 4.657374 0.000000 0.000000 -23.006590 4.038487 4.028665 -4.842664 0.000000 0.000000 6.078910 19.792296 -10.593740 4.788402 0.000000 0.000000 -23.738970 
-19.585966 9.167439 43.628853 -174.857702 -2.761958 -171.641959 2.924266 -2.304567 -11.283546 0.816059 -2.810757 4.072307 0.000000 0.000000 0.000000 -3.391417 5.556145 0.931166 3.836854 8.518266 -46.023828 0.362171 16.281300 -3.796320 -13.968000 -1.699400 -31.685900 0.000000 -20.410101 0.000000 28.711599 12.211100 28.225401 7.770470 -12.901700 -0.981192 10.568200 1.942400 -34.146599 0.000000 20.297501 0.000000 -17.056801 -6.243630 25.933100 5.231547 -2.592056 -7.236544 0.000000 0.000000 6.513900 -3.695912 2.108610 4.657561 0.000000 0.000000 -23.004920 4.040314 3.979274 -4.847063 0.000000 0.000000 6.077710 19.783611 -10.559780 4.799672 0.000000 0.000000 -23.764620 
-19.585684 9.167470 43.628534 -174.859100 -2.758355 -171.627592 2.925033 -2.306296 -11.277155 0.818990 -2.812508 4.050698 0.000000 0.000000 0.000000 -3.382511 5.547227 0.922897 3.829871 8.523253 -46.035448 0.354217 16.261400 -3.778360 -13.952300 -1.669660 -31.661200 0.000000 -20.398399 0.000000 28.684000 12.222800 28.236799 7.787250 -12.919400 -0.980909 10.547900 1.968310 -34.121601 0.000000 20.275400 0.000000 -17.057501 -6.240430 25.911699 5.233536 -2.603405 -7.241744 0.000000 0.000000 6.500550 -3.695384 2.123070 4.661607 0.000000 0.000000 -23.002380 4.040238 3.985021 -4.859347 0.000000 0.000000 6.077170 19.778478 -10.563916 4.796379 0.000000 0.000000 -23.756960 
-19.585500 9.167489 43.628161 -174.859056 -2.742591 -171.621054 2.929178 -2.299927 -11.282508 0.812864 -2.807712 4.070104 0.000000 0.000000 0.000000 -3.392794 5.563011 0.886965 3.841777 8.525017 -46.037868 0.357764 16.263201 -3.805320 -13.974300 -1.665790 -31.727900 0.000000 -20.404400 0.000000 28.632401 12.274000 28.188999 7.788990 -12.907000 -0.972309 10.555700 1.966300 -34.103901 0.000000 20.245800 0.000000 -17.069599 -6.228970 25.903799 5.233192 -2.599622 -7.235366 0.000000 0.000000 6.489620 -3.694948 2.136858 4.660348 0.000000 0.000000 -22.999830 4.037665 4.012317 -4.862156 0.000000 0.000000 6.073900 19.785991 -10.570164 4.791899 0.000000 0.000000 -23.749400 
-19.584938 9.167375 43.627951 -174.858504 -2.732758 -171.617690 2.919814 -2.306678 -11.272253 0.841748 -2.811536 4.094737 0.000000 0.000000 0.000000 -3.414924 5.577948 0.816059 3.829099 8.515595 -46.031597 0.341518 16.282499 -3.808680 -14.000900 -1.687530 -31.794701 0.000000 -20.393200 0.000000 28.632299 12.285400 28.154900 7.776000 -12.904700 -0.957660 10.567100 1.977060 -34.096401 0.000000 20.219700 0.000000 -17.027201 -6.228090 25.818800 5.231798 -2.563521 -7.247572 0.000000 0.000000 6.513570 -3.683026 2.121830 4.649795 0.000000 0.000000 -23.004930 4.038649 4.027023 -4.859026 0.000000 0.000000 6.059890 19.786298 -10.573578 4.796836 0.000000 0.000000 -23.771590 
-19.584579 9.167265 43.627783 -174.861948 -2.730435 -171.620634 2.917765 -2.306483 -11.256238 0.839147 -2.810825 4.089909 0.000000 0.000000 0.000000 -3.419696 5.585818 0.794581 3.825769 8.519424 -46.030248 0.345909 16.268299 -3.790700 -13.979800 -1.667750 -31.614099 0.000000 -20.364500 0.000000 28.683100 12.231000 28.234900 7.786010 -12.914300 -0.959341 10.563000 1.983650 -34.099998 0.000000 20.225599 0.000000 -17.050301 -6.252350 25.822399 5.231988 -2.574894 -7.248548 0.000000 0.000000 6.525180 -3.696174 2.128563 4.641610 0.000000 0.000000 -23.000890 4.038340 4.012336 -4.857254 0.000000 0.000000 6.066700 19.801693 -10.548586 4.788510 0.000000 0.000000 -23.746040 
